# xmcd
#
# Track frame offsets: 
#        150
#        13466
#        26369
#        39260
#        54485
#        67613
#        81309
#        95333
#        110148
#        123486
#        138470
#        148479
#        162130
#        174334
#        185732
#        200120
#        214865
#        229612
#        243075
#        256350
#        268467
#        284158
#
# Disc length: 3957 seconds
#
# Revision: 0
# Processed by: cddbd v1.5.2PL0 Copyright (c) Steve Scherf et al.
# Submitted via: ExactAudioCopy v0.99pb4
#
DISCID=510f7316
DTITLE=Carter, Bo - Complete Recorded Works Volume 4 1936-1938
DYEAR=1936
DGENRE=Blues
TTITLE0=It's Too Wet
TTITLE1=Dinner Blues
TTITLE2=Ain't Nobody Got It
TTITLE3=Cigarette Blues
TTITLE4=Pussy Cat Blues
TTITLE5=The Ins And Outs Of My Girl
TTITLE6=All Around Man Part 2 
TTITLE7=Bo Carter's Advice
TTITLE8=Doubled Up In A Knot
TTITLE9=Worried G Blues
TTITLE10=Your Biscuits Are Big Enough For Me
TTITLE11=Don't Mash My Digger So Deep
TTITLE12=Flea On Me
TTITLE13=Got To Work Somewhere
TTITLE14=Sue Cow
TTITLE15=Shake 'Em On Down
TTITLE16=A Girl For Every Day Of The Week
TTITLE17=Trouble In Blues
TTITLE18=World In A Jug
TTITLE19=Who's Been Here?
TTITLE20=Whiskey Blues
TTITLE21=Shoo That Chicken
EXTD=
EXTT0=
EXTT1=
EXTT2=
EXTT3=
EXTT4=
EXTT5=
EXTT6=
EXTT7=
EXTT8=
EXTT9=
EXTT10=
EXTT11=
EXTT12=
EXTT13=
EXTT14=
EXTT15=
EXTT16=
EXTT17=
EXTT18=
EXTT19=
EXTT20=
EXTT21=
PLAYORDER=
